<svg width="26" height="32" viewBox="0 0 26 32" fill="none" xmlns="http://www.w3.org/2000/svg">
<path d="M8.16131 30.6335L1.18511 24.1026C0.448899 22.0602 2.08559 21.8068 2.99596 21.9355C3.19806 22.1229 3.47916 22.3872 3.82715 22.7188C4.90531 21.9375 6.17234 21.4308 6.58795 20.7184C7.00355 20.0059 5.60831 13.8906 7.89413 9.2002L9.8534 4.3317L11.0408 1.63028C11.5554 1.34332 12.6736 1.01875 13.0298 2.0162C12.822 3.20364 11.8721 8.69554 11.5455 9.2002C11.2843 9.60393 9.91278 13.3266 9.25969 15.1374L9.82373 28.6742C10.3225 30.3366 8.92325 30.6731 8.16131 30.6335Z" fill="#EF6307"/>
<path d="M9.82373 28.6742C10.3225 30.3366 8.92325 30.6731 8.16131 30.6335L1.18511 24.1026C0.448899 22.0602 2.08559 21.8068 2.99596 21.9355C3.19806 22.1229 3.47916 22.3872 3.82715 22.7188M9.82373 28.6742C7.31843 26.0941 5.11486 23.9458 3.82715 22.7188M9.82373 28.6742L9.25969 15.1374C9.91278 13.3266 11.2843 9.60393 11.5455 9.2002C11.8721 8.69554 12.822 3.20364 13.0298 2.0162C12.6736 1.01875 11.5554 1.34332 11.0408 1.63028L9.8534 4.3317L7.89413 9.2002C5.60831 13.8906 7.00355 20.0059 6.58795 20.7184C6.17234 21.4308 4.90531 21.9376 3.82715 22.7188" stroke="#EF6307"/>
<path d="M12.8514 19.6498C13.4926 24.827 10.6447 27.3681 9.14062 27.9916L11.5155 9.20034C12.0202 8.93316 12.8514 9.25971 12.8514 10.0315C12.8514 10.649 12.5149 14.4251 12.3467 16.2359C12.4259 16.8098 12.6376 18.2961 12.8514 19.6498Z" fill="#EF6307" stroke="#EF6307"/>
<path d="M17.8387 30.6554L24.8149 24.1245C25.5511 22.0821 23.9144 21.8288 23.004 21.9575C22.8019 22.1448 22.5208 22.4091 22.1728 22.7407C21.0947 21.9595 19.8277 21.4528 19.4121 20.7403C18.9964 20.0279 20.3917 13.9126 18.1059 9.22218L16.1466 4.35368L14.9592 1.65225C14.4446 1.36529 13.3264 1.04072 12.9702 2.03817C13.178 3.22561 14.1279 8.71751 14.4545 9.22218C14.7157 9.62591 16.0872 13.3485 16.7403 15.1594L16.3126 28.5559L16.1763 28.6962C15.6775 30.3586 17.0767 30.695 17.8387 30.6554Z" fill="#EF6307"/>
<path d="M22.1728 22.7407C22.5208 22.4091 22.8019 22.1448 23.004 21.9575C23.9144 21.8288 25.5511 22.0821 24.8149 24.1245L17.8387 30.6554C17.0767 30.695 15.6775 30.3586 16.1763 28.6962C16.2218 28.6493 16.2672 28.6025 16.3126 28.5559M22.1728 22.7407C21.0947 21.9595 19.8277 21.4528 19.4121 20.7403C18.9964 20.0279 20.3917 13.9126 18.1059 9.22218L16.1466 4.35368L14.9592 1.65225C14.4446 1.36529 13.3264 1.04072 12.9702 2.03817C13.178 3.22561 14.1279 8.71751 14.4545 9.22218C14.7157 9.62591 16.0872 13.3485 16.7403 15.1594L16.3126 28.5559M22.1728 22.7407C20.9085 23.9455 18.7614 26.0383 16.3126 28.5559" stroke="#EF6307"/>
<path d="M13.1486 19.6718C12.5074 24.849 15.3553 27.3901 16.8594 28.0135L14.4845 9.22231C13.9798 8.95513 13.1486 9.28168 13.1486 10.0535C13.1486 10.671 13.4851 14.447 13.6533 16.2579C13.5741 16.8318 13.3624 18.3181 13.1486 19.6718Z" fill="#EF6307" stroke="#EF6307"/>
</svg>
