<svg width="11" height="12" viewBox="0 0 11 12" fill="none" xmlns="http://www.w3.org/2000/svg">
<path d="M5 0.0732422C7.76142 0.0732422 10 2.31182 10 5.07324C10 6.52851 9.37707 7.83725 8.38477 8.75098L10.8535 11.2197L10.1465 11.9268L7.57715 9.35742C6.82442 9.8112 5.943 10.0732 5 10.0732C2.23858 10.0732 0 7.83467 0 5.07324C0 2.31182 2.23858 0.0732422 5 0.0732422ZM5 1.07324C2.79086 1.07324 1 2.8641 1 5.07324C1 7.28238 2.79086 9.07324 5 9.07324C7.20914 9.07324 9 7.28238 9 5.07324C9 2.8641 7.20914 1.07324 5 1.07324Z" fill="#A9A9A9"/>
</svg>
